<svg xmlns="http://www.w3.org/2000/svg" width="446" height="429" viewBox="0 0 446 429">
    <g fill="none">
        <ellipse cx="222.5" cy="86.127" fill="#F5F5F5" rx="222.5" ry="86.056" transform="translate(.536 255.731)"/>
        <g fill="#E0E0E0" transform="translate(20.536 235.731)">
            <ellipse cx="255.077" cy="130.328" rx="45.206" ry="26.149"/>
            <ellipse cx="173.121" cy="26.149" rx="69.514" ry="26.149"/>
            <ellipse cx="363.997" cy="89.588" rx="45.206" ry="26.149"/>
            <ellipse cx="45.738" cy="94.031" rx="45.206" ry="26.149"/>
        </g>
        <path fill="#3B76DC" d="M382.536 41.464L329.538 0.731 189.148 184.246 111.175 124.319 70.536 177.44 175.001 257.608 175.001 257.608 201.79 277.731z"/>
        <g>
            <g>
                <path fill="#C53F3F" d="M.621 56.28c0-9.882.31-19.002 5.53-32.988C10.524 11.553 21.538-.203 28.86.398c6.815.566 8.218 8.944 1.979 16.295-6.24 7.35-19.809 21.416-20.776 31.66L7.295 59.977.621 56.279z" transform="translate(8.536 261.731) translate(380.726 1.77)"/>
                <path fill="#000" d="M.621 56.28c0-9.882.31-19.002 5.53-32.988C10.524 11.553 21.538-.203 28.86.398c6.815.566 8.218 8.944 1.979 16.295-6.24 7.35-19.809 21.416-20.776 31.66L7.295 59.977.621 56.279z" opacity=".2" transform="translate(8.536 261.731) translate(380.726 1.77)"/>
                <path fill="#FFF" d="M3.55 52.714c.195-.04.338-.208.346-.407 1.242-20.753 16.365-40.692 25.737-45.62.103-.054.18-.147.213-.259.034-.111.02-.231-.036-.333-.053-.102-.145-.179-.255-.212-.11-.033-.23-.02-.33.035C19.71 10.97 4.33 31.183 3.07 52.254c-.01.117.028.232.105.32.076.089.186.142.303.15l.07-.01z" transform="translate(8.536 261.731) translate(380.726 1.77)"/>
                <path fill="#C53F3F" d="M9.762 61.428c.462-3.468 3.728-9.545 9.656-15.039 6.55-6.077 15.442-9.73 16.995-13.941 1.864-5.06-2.61-7.83-10.09-6.343-8.99 1.77-19.063 11.89-21.007 32.73l4.446 2.593z" transform="translate(8.536 261.731) translate(380.726 1.77)"/>
                <path fill="#FFF" d="M7.836 58.146c.165-.04.293-.17.329-.336C11.839 39.604 24.184 31.598 30.2 29.909c.233-.066.368-.308.301-.54-.066-.232-.308-.366-.54-.3-6.648 1.866-18.913 9.987-22.658 28.564-.024.114 0 .232.065.329.065.096.166.162.281.184.06.017.126.017.186 0z" transform="translate(8.536 261.731) translate(380.726 1.77)"/>
            </g>
            <path fill="#C53F3F" d="M36.857 46.743s2.476-12.057-.373-23S27.503 4.618 20.261 1.628c-7.242-2.99-15.486 1.91-9.061 9.164 6.425 7.254 18.974 16.631 19.782 36.27l5.875-.319z" transform="translate(8.536 261.731)"/>
            <path fill="#000" d="M36.857 46.743s2.476-12.057-.373-23S27.503 4.618 20.261 1.628c-7.242-2.99-15.486 1.91-9.061 9.164 6.425 7.254 18.974 16.631 19.782 36.27l5.875-.319z" opacity=".15" transform="translate(8.536 261.731)"/>
            <path fill="#FFF" d="M35.668 43.019h.088c.11-.007.213-.058.285-.141.072-.083.107-.192.097-.301C34.61 20.762 22.284 7.864 15.975 4.087c-.197-.116-.45-.052-.568.141-.059.095-.077.21-.05.318.027.108.096.2.192.257 6.167 3.69 18.228 16.357 19.746 37.827.015.201.171.364.373.389z" transform="translate(8.536 261.731)"/>
            <path fill="#C53F3F" d="M.595 29.192c.168 1.628 1.49 2.884 2.76 3.937 1.269 1.053 2.662 2.194 2.982 3.795.692 3.246-3.16 6.236-2.326 9.439.455 1.335 1.44 2.426 2.725 3.016 1.038.508 2.101.963 3.186 1.363.527.16 1.063.287 1.606.38 1.63.156 3.163.84 4.367 1.946 1.775 1.929 1.553 4.874 2.192 7.413.866 3.679 3.536 6.673 7.1 7.962l14.048-9.979c3.55-4.768 2.663-13.322-3.044-16.117-1.216-.593-2.6-.938-3.55-1.885-1.162-1.14-1.455-2.892-1.526-4.52-.071-1.628 0-3.326-.666-4.821-1.083-2.03-3.089-3.41-5.378-3.698-2.662-.451-5.263.61-7.748-.292-2.484-.902-4.8-2.37-7.383-3.016-2.54-.743-5.281-.283-7.437 1.247-1.234.882-1.949 2.317-1.908 3.83z" transform="translate(8.536 261.731)"/>
            <path fill="#FFF" d="M27.086 41.966c-.019-.06-.056-.113-.107-.15-6.682-9.43-17.155-13.906-20.696-14.694-.128-.028-.262.014-.35.11-.09.097-.12.234-.08.359.039.125.142.22.27.248 3.355.743 13.082 4.883 19.623 13.534-5.393-1.81-11.3-1.293-16.294 1.425-.082.052-.14.135-.16.23-.02.094 0 .193.053.274.065.104.179.168.302.168.075.008.15-.01.213-.053 5.124-2.772 11.216-3.14 16.64-1.009 3.904 5.564 5.86 12.254 5.564 19.037-.001.191.139.354.329.38.099.003.194-.034.266-.102.072-.068.113-.161.115-.26.31-6.946-1.69-13.8-5.688-19.497z" transform="translate(8.536 261.731)"/>
        </g>
        <g>
            <path fill="#FFBDA7" d="M12.631 219.546s-2.263-27.82-.967-38.318c1.11-9.013 2.512-12.767 2.734-14.813 0 0 1.935-21.157 1.872-39.146 0-8.64.684-14.805 5.273-25.143l30.482 6.878c.674 4.555 3.177 34.875 4.038 61.859.746 23.621.355 44.315.355 44.315v1.245c0 1.38.329 2.34 1.243 4.547 1.153 2.837 2.783 5.455 4.82 7.74.63.667 5.015 4.404 5.601 5.205 1.89 2.153-1.953 3.434-4.82 3.087-3.027-.365-7.74-1.45-9.09-3.274-.887-1.22-1.633-5.516-2.556-6.744-3.133-4.164-4.438-5.952-4.438-7.286-.07-2.43.746-3.4 1.03-4.77-.284-2.864-6.773-26.316-6.986-34.652-.106-3.968.08-9.44.08-9.44L36.154 143.4c-1.776 6.886-4.936 19.742-5.939 26.307-1.225 8.008-5.45 31.362-8.157 41.984-.806 2.744-1.4 5.546-1.775 8.381l-.08.934c-.045 1.193-.39 13.835-.817 16.504-.888 5.587-5.85 4.947-6.702.454-.727-3.817-.044-15.694-.044-17.153l-.009-1.264z" transform="translate(344.536 88.731)"/>
            <path fill="#37474F" d="M12.631 219.546c-1.393.045-.408 5.436-.719 8.897-.337 3.728-1.518 6.468-1.828 9.529-.436 2.672.01 5.415 1.269 7.81 1.003 2.216 5.93 5.214 7.74 1.994 1.648-3.182 2.31-6.786 1.9-10.347-.267-3.559-.524-6.228-.63-8.897-.098-2.411 1.677-8.096-.134-8.416l-.08.934c-.63 1.308-6.799 2.295-7.562-.196l.044-1.308z" transform="translate(344.536 88.731)"/>
            <path fill="#263238" d="M46.894 222.66c-.4 1.78.107 6.513.107 6.513.803 1.274 2.034 2.22 3.47 2.669l1.11-6.655-4.687-2.527z" transform="translate(344.536 88.731)"/>
            <path fill="#000" d="M50.471 231.877L56.356 229.849 57.706 224.573 51.11 228.034z" transform="translate(344.536 88.731)"/>
            <path fill="#37474F" d="M56.41 216.45v-1.245c.807.382 2.662 6.832 5.112 11.245 2.237 4.03 6.596 6.228 7.99 8.007 1.916 2.34-1.696 5.436-7.572 4.262-2.912-.587-7.341-2.393-8.566-4.342-1.225-1.948-1.669-5.551-2.663-6.984-.994-1.432-3.338-3.07-3.852-4.706-.405-1.486-.423-3.051-.054-4.546.444-1.504.817-3.319 1.332-3.159l.044 1.139c.408.792 1.838 1.708 4.793 1.824 1.447.027 2.805-.205 3.436-1.495z" transform="translate(344.536 88.731)"/>
            <path fill="#455A64" d="M52.602 108.648s2.307 22.322 3.222 42.1c.914 19.777.683 45.32.683 45.32s-2.015 1.485-6.497 1.779c-4.483.294-6.063-1.219-6.063-1.219s-2.858-8.897-3.373-15.231c-.319-3.413-.366-6.846-.142-10.267l-4.367-26.352s-4.935 24.768-5.468 27.918c-.533 3.15-5.743 26.316-5.743 26.316-2.13 1.51-4.739 2.185-7.332 1.895-4.305-.516-6.107-2.562-6.107-2.562s-1.038-11.868-.302-18.247c.737-6.38 2.38-11.272 2.619-15.436.24-4.164-.657-26.69-.488-35.72.168-9.031 1.89-17.554 9.435-28.524l29.923 8.23z" transform="translate(344.536 88.731)"/>
            <path fill="#37474F" d="M36.065 144.75l3.115-16.583s5.788-1.601 8.45-5.195c0 0-.7 3.959-6.639 6.556l-3.328 16.53L39.1 163.07l-3.036-18.318z" transform="translate(344.536 88.731)"/>
            <path fill="#FFBDA7" d="M78.343 7.189c-.34-.519-1.022-.686-1.562-.383.382-.637.279-1.453-.249-1.975-.581-.475-1.416-.475-1.997 0 0 0 .755-1.566-.532-2.367-.657-.484-1.58-.353-2.077.294.35-.911-.097-1.936-1.004-2.295-.887-.427-1.9-.143-3.266 2.669-.78.107-1.508.444-2.095.97-.861 1.72-1.53 3.532-1.997 5.4-.266.987.453 2.918 1.02 4.653.569 1.735.471 2.865.311 6.494l-1.482 14.76c-.47 3.995-.541 4.76-1.669 6.77-2.05 3.675-11.21 19.387-13.705 21.353-2.334 1.86-3.55 2.945-3.55 2.945l9.435 14.235c1.35-6.833 16.386-29.662 17.753-32.696 2.068-4.537 1.607-3.897 1.775-7.02 0 0 .249-17.553.39-20.382.294-1.691.988-3.287 2.025-4.653.84-.717 1.417-1.693 1.642-2.776.594-1.868 1.012-3.425 1.012-3.425s.479-1.753-.178-2.571z" transform="translate(344.536 88.731)"/>
            <path fill="#9A4A4D" d="M67.656 3.105c.742-.093 1.49-.138 2.237-.133.4 0 1.961 2.117 2.414 2.588.453.472-.293 1.949-1.846 1.54-1.553-.41-1.997-.588-1.997-.588-.151.225-.368.396-.622.49 0 0 4.305 2.971 4.625 7.464-.568-1.625-1.429-3.133-2.539-4.448-.899-1.013-1.954-1.875-3.124-2.554 0 0 1.491-.8 1.633-1.414.723.337 1.483.587 2.264.747.548.105 1.097-.177 1.331-.685.16-.33-2.104-2.954-2.104-2.954l-2.272-.053z" transform="translate(344.536 88.731)"/>
            <path fill="#9A4A4D" d="M71.562 9.448c-.157.128-.35.203-.55.214-.445 0-.578-.4-.684-.756-.15-.584-.15-1.196 0-1.78.013-.046.013-.095 0-.142.004-.05-.025-.097-.071-.116-.08 0-.151 0-.204.098-.158.25-.3.508-.426.774-.07.145-.17.272-.293.374-.124.08-.255.149-.391.205-.222.142-.142.427.124.4.196-.02.381-.097.533-.223.07 1.255.985 2.118 2.006 1.557-.115.89-.071 1.78 1.074 1.967.52.115 1.063-.058 1.42-.454-.097.508.116 1.025.542 1.317.473.346 1.129.29 1.535-.134.061-.093.115-.192.16-.293v-.054l-.142.107c-.34.272-.788.364-1.207.249-.266-.196-.423-.506-.426-.836-.013-.507.059-1.012.213-1.495.005-.02.005-.042 0-.062 0-.054-.098 0-.133 0-.231.195-.4.445-.613.658-.277.296-.684.433-1.083.365-.825-.116-.887-1.157-.78-1.78 0-.213.08-.427.106-.649v-.08c-.122.076-.228.176-.311.294-.12.11-.254.203-.4.275zM69.662 7.722s.036-.035 0 0z" transform="translate(344.536 88.731)"/>
            <path fill="#9A0000" d="M31.227 66.423l-9.32.89c2.113 10.534-1.331 17.135-1.331 17.135l2.059 13.64c-.08 1.61-3.116 5.337-5.619 11.236 4.935 6.441 28.75 8.336 36.393 2.527-1.278-6.121-2.237-10.766-2.503-13.088l.284-8.416c9.604-8.123-2.29-20.142-6.657-23.95l-5.432-.17-7.874.196z" transform="translate(344.536 88.731)"/>
            <path fill="#263238" d="M27.792 62.767c0-1.584-5.246-5.338-7.873-9.35-2.441-3.702-5.85-13.88 2.228-17.136 0 0-1.776-4.893 1.429-7.767 3.204-2.873 7.43-1.094 8.104.107.835-3.078 3.582-5.246 6.764-5.338 3.13-.232 5.954 1.881 6.622 4.955 2.633-1.147 5.709-.286 7.367 2.064 2.965 4.102-.968 7.856-.968 7.856 1.035.686 1.611 1.885 1.5 3.123-.23 1.78-1.881 2.162-2.077 3.025-.026.355.16.692.475.856.315.165.697.126.972-.1-.196.939-1.099 1.552-2.041 1.388-1.873-.107-3.55-2.669-3.55-2.669L27.791 62.767z" transform="translate(344.536 88.731)"/>
            <path fill="#FFBDA7" d="M45.083 34.51c1.776 1.575 4.137 5.036 4.288 15.365.115 8.755-2.521 11.015-3.862 11.69-1.34.677-3.985.392-6.56 0l.143 4.45c1.416 3.208 1.988 6.728 1.66 10.222-5.406-1.735-9.294-5.178-12.711-9.155l-.462-11.566s-1.456 1.575-4.092-.658c-2.175-1.842-3-5.063-1.42-6.86.826-.867 2.027-1.266 3.206-1.066 1.18.2 2.183.972 2.679 2.063 0 0 3.905.178 9.09-3.016 5.565-3.372 7.047-7.322 8.041-11.468z" transform="translate(344.536 88.731)"/>
            <path fill="#263238" d="M27.934 48.043l.089 3.71c.98 0 1.775-.797 1.775-1.78.01-1.046-.82-1.906-1.864-1.93zM38.852 47.954c.022.307-.079.61-.28.842-.202.232-.488.374-.794.394-.639.063-1.208-.401-1.278-1.04-.022-.307.079-.61.28-.843.202-.232.488-.374.794-.394.637-.058 1.204.404 1.278 1.04zM47.933 47.34c.04.636-.44 1.185-1.074 1.228-.639.062-1.209-.402-1.279-1.041-.022-.307.08-.61.281-.842.202-.232.487-.374.793-.395.64-.057 1.209.41 1.279 1.05z" transform="translate(344.536 88.731)"/>
            <path fill="#9A4A4D" d="M38.373 54.67l3.86 1.13c-.104.533-.423.999-.882 1.287-.46.288-1.017.373-1.54.235-1.099-.37-1.726-1.526-1.438-2.651z" transform="translate(344.536 88.731)"/>
            <path fill="#263238" d="M48.057 43.496l-2.548-.64c.04-.356.232-.676.528-.877.296-.2.664-.26 1.008-.164.72.215 1.158.943 1.012 1.681z" transform="translate(344.536 88.731)"/>
            <path fill="#9A4A4D" d="M42.234 46.237L42.429 53.399 45.731 52.198zM38.95 61.601c-2.708-.266-8.318-1.726-9.267-3.976.386 1.131 1.1 2.122 2.05 2.847 1.713 1.414 7.27 2.944 7.27 2.944l-.053-1.815z" transform="translate(344.536 88.731)"/>
            <path fill="#FFBDA7" d="M.888 101.37C2.6 94.253 8.52 82.002 10.652 76.29c2.405-6.53 6.657-8.897 11.29-9.012 1.776 2.18 4.758 9.742-.408 16.156-2.166 4.751-9.293 18.194-9.293 18.194.186 1.263 3.799 14.315 5.85 18.612.367.756.999 1.351 1.774 1.673 2.077.89 4.536 3.114 6.214 4.368 1.305.988 2.308 1.13 2.219 1.521-.309.92-1.27 1.45-2.21 1.22-1.414-.43-2.794-.966-4.128-1.602 1.265 1.95 2.662 3.81 4.181 5.57 2.823 3.175 2.76 5.933-2.663 6.085-4.1.124-6.293-2.162-10.021-9.146-1.074-2.02-2.619-4.689-3.906-7.278-3.249-6.539-3.87-7.117-5.663-11.308-2.84-6.61-3.675-7.25-3-9.973z" transform="translate(344.536 88.731)"/>
        </g>
        <g>
            <path fill="#263238" d="M51.109 261.806c.194.975.564 3.724 5.595 3.981 5.032.257 8.02-1.684 9.138-4.203 1.12-2.518.644-4.433.661-6.712.018-2.278 1.763-3.59 2.177-4.788.625-1.773-.732-4.291-.732-4.291l-16.84 16.013z" transform="translate(28.536 100.731)"/>
            <path fill="#407BFF" d="M51.223 259.5c.623-1.023 1.31-2.006 2.054-2.943 2.64-4.083 4.03-8.855 4-13.726 0-.274 0-.798.238-.975.238-.177.538 0 .837.115.51.165 1.042.255 1.578.266 1.388-.074 2.77-.252 4.132-.532.344 0 .547 1.073.617 2.235.59-.461.723-1.268 1.251-1.774.282-.274.415-.301.37-.709 0-.266-.061-.505-.088-.771.441-.169.97 1.542 1.454 2.837.564 1.507 1.252 3.192.785 4.815-.305.886-.704 1.736-1.19 2.535-.838 1.393-1.327 2.969-1.427 4.593 0 .7.114 1.41.07 2.12-.121 2.431-1.644 4.567-3.895 5.461-2.952 1.224-7.516 1.472-10.371-.425-.96-.656-.785-2.261-.415-3.121z" transform="translate(28.536 100.731)"/>
            <path fill="#000" d="M51.223 259.5c.623-1.023 1.31-2.006 2.054-2.943 2.64-4.083 4.03-8.855 4-13.726 0-.274 0-.798.238-.975.238-.177.538 0 .837.115.51.165 1.042.255 1.578.266 1.388-.074 2.77-.252 4.132-.532.344 0 .547 1.073.617 2.235.59-.461.723-1.268 1.251-1.774.282-.274.415-.301.37-.709 0-.266-.061-.505-.088-.771.441-.169.97 1.542 1.454 2.837.564 1.507 1.252 3.192.785 4.815-.305.886-.704 1.736-1.19 2.535-.838 1.393-1.327 2.969-1.427 4.593 0 .7.114 1.41.07 2.12-.121 2.431-1.644 4.567-3.895 5.461-2.952 1.224-7.516 1.472-10.371-.425-.96-.656-.785-2.261-.415-3.121z" opacity=".3" transform="translate(28.536 100.731)"/>
            <path fill="#263238" d="M10.195 247.841c-.134.843.086 1.704.608 2.376 2.452 1.516 5.416 1.949 8.195 1.197 2.977-.771 5.727-2.249 8.02-4.309 1.762-1.525 3.957-2.456 6.273-2.66 2.37-.363 4.054-1.108 4.16-1.773.185-1.144.105-1.844-.415-1.774l-26.84 6.943z" transform="translate(28.536 100.731)"/>
            <path fill="#407BFF" d="M11.826 244.4c.634-.292 1.26-.602 1.868-.94 1.713-.922 3.348-1.984 4.89-3.173.679-.532 1.348-1.082 1.992-1.658.643-.577 1.286-1.26 1.912-1.916.333-.37.628-.775.881-1.205.51-.813.914-1.69 1.199-2.607.044-.21.155-.4.317-.541.232-.104.502-.081.714.062.185.124.383.228.59.31l.617.178c.653.184 1.33.268 2.009.248 2.546-.071 2.564-.594 2.767.213.065.292.11.588.132.886 1.304-.38 2.3-.94 2.291-1.454v-1.631c1.313-.284 1.674 2.092 2.423 4.717.608 2.128 1.313 3.635.882 5.32-1.763 1.995-5.385 1.986-7.358 2.562-2.785.807-3.869 3.086-7.667 4.93-6.115 2.98-10.442.887-11.772-.08-.943-1.365-1.305-3.014 1.313-4.22z" transform="translate(28.536 100.731)"/>
            <path fill="#000" d="M11.826 244.4c.634-.292 1.26-.602 1.868-.94 1.713-.922 3.348-1.984 4.89-3.173.679-.532 1.348-1.082 1.992-1.658.643-.577 1.286-1.26 1.912-1.916.333-.37.628-.775.881-1.205.51-.813.914-1.69 1.199-2.607.044-.21.155-.4.317-.541.232-.104.502-.081.714.062.185.124.383.228.59.31l.617.178c.653.184 1.33.268 2.009.248 2.546-.071 2.564-.594 2.767.213.065.292.11.588.132.886 1.304-.38 2.3-.94 2.291-1.454v-1.631c1.313-.284 1.674 2.092 2.423 4.717.608 2.128 1.313 3.635.882 5.32-1.763 1.995-5.385 1.986-7.358 2.562-2.785.807-3.869 3.086-7.667 4.93-6.115 2.98-10.442.887-11.772-.08-.943-1.365-1.305-3.014 1.313-4.22z" opacity=".3" transform="translate(28.536 100.731)"/>
            <path fill="#455A64" d="M64.776 126.04c.784 8.866 1.569 15.747 1.604 24.02.07 17.245 0 43.677 0 43.677.835 3.64 1.328 7.35 1.471 11.083.071 11.012 0 37.639 0 37.639s-4.159 4.371-10.882 1.552c0 0-5.287-39.014-6.636-49.902-1.26-10.374-5.392-36.646-5.392-36.646l-5.455 32.585c.203 3.84.203 7.687 0 11.527-.352 5.045-3.243 32.008-3.243 32.008-2.643 2.377-10.503 1.153-12.107-.886 0 0-.23-37.39-.362-42.71-.282-11.528 1.446-50.408 1.966-59.523.37-6.641 39.036-4.424 39.036-4.424z" transform="translate(28.536 100.731)"/>
            <path fill="#37474F" d="M44.94 157.463l-1.577-13.3c-3.364-.815-6.537-2.285-9.34-4.327 0 0 1.445 3.591 7.41 6.304l1.587 12.414-3.525 31.52 5.446-32.61z" transform="translate(28.536 100.731)"/>
            <path fill="#FFBDA7" d="M1.234 7.856c.367-.556 1.101-.727 1.674-.39-.383-.694-.26-1.56.3-2.12.618-.505 1.505-.505 2.123 0 0 0-.775-1.693.617-2.526.705-.514 1.69-.364 2.212.337C7.8 2.175 8.292 1.086 9.26.709c.934-.443 2.045-.124 3.455 2.89.848.128 1.637.512 2.264 1.1.893 1.865 1.584 3.821 2.062 5.835.265 1.072-.537 3.13-1.163 4.983-.626 1.853-.546 3.068-.432 6.96l4.239 25.829c2.97 5.621 11.253 18.052 13.887 20.224 2.468 2.03 3.252 2.74 3.252 2.74L26.7 90.156C25.096 86.751 11.077 60.604 8.424 55.39c-1.718-3.37-1.762-4.256-1.93-7.608 0 0-1.057-22.246-1.163-25.287-.088-1.437-.802-4.434-1.55-5.214-.903-.781-1.523-1.841-1.763-3.015-.6-2.012-1.022-3.688-1.022-3.688s-.458-1.898.238-2.722z" transform="translate(28.536 100.731)"/>
            <path fill="#455A64" d="M37.098 70.313c-1.683-.328-3.234-2.315-4.626-3.795-1.392-1.481-8.292-11.385-8.292-11.385s-9.2 3.103-10.962 12.573c0 0 7.745 13.92 9.455 16.802 1.556 2.946 2.65 6.117 3.243 9.399 0 0 10.838-7.111 11.182-23.594z" transform="translate(28.536 100.731)"/>
            <path fill="#F0997A" d="M12.716 3.635c-.788-.114-1.583-.173-2.38-.177-.431 0-2.132 2.243-2.643 2.74-.511.496.282 2.101 1.956 1.676.724-.163 1.439-.364 2.141-.603.156.244.384.434.652.54 0 0-4.652 3.122-5.058 7.98.631-1.74 1.575-3.347 2.785-4.743.978-1.06 2.117-1.958 3.375-2.66 0 0-1.577-.887-1.763-1.534-.778.349-1.594.605-2.432.762-.588.106-1.173-.204-1.418-.753-.168-.355 2.3-3.13 2.3-3.13l2.485-.098z" transform="translate(28.536 100.731)"/>
            <path fill="#F0997A" d="M8.45 10.383c.167.135.37.218.582.24.476 0 .626-.426.74-.808.191-.624.215-1.287.07-1.924-.012-.052-.012-.107 0-.16.006-.051.035-.098.08-.123.08 0 .159 0 .212.115.172.283.323.58.45.887.076.149.177.284.299.399.134.088.275.165.423.23.116.04.18.166.14.284-.038.117-.165.18-.281.142-.211-.025-.41-.112-.573-.249-.088 1.348-1.084 2.261-2.168 1.64.115.985.053 1.943-1.18 2.093-.556.111-1.13-.08-1.507-.505.102.546-.135 1.1-.6 1.4-.516.339-1.2.249-1.612-.212-.079-.095-.15-.195-.212-.301v-.063c0-.017 0 0 0 0l.15.116c.358.298.837.404 1.287.283.285-.206.46-.533.475-.886.015-.545-.053-1.09-.202-1.614-.009-.02-.009-.042 0-.062 0-.053.106 0 .14 0 .247.213.424.488.653.718.294.32.726.472 1.154.408.881-.115.97-1.224.881-1.933 0-.23-.088-.46-.114-.7 0 0 0-.08.044-.08.131.08.242.19.326.32.1.128.215.244.344.345z" transform="translate(28.536 100.731)"/>
            <path fill="#407BFF" d="M53.876 69.87c4.377 1.069 8.664 2.483 12.821 4.229 3.595 1.773 1.648 4.708 1.357 8.618-.67 9.124-3.763 27-3.763 27l1.393 22.866c-4.662 5.001-28.322 7.005-40.209-.337 0 0 .159-36.743.476-42.506.564-10.126 3.181-17.397 9.217-18.922 6.036-1.525 11.174-2.669 18.708-.949z" transform="translate(28.536 100.731)"/>
            <path fill="#8C8C8C" d="M53.876 69.87c4.377 1.069 8.664 2.483 12.821 4.229 3.595 1.773 1.648 4.708 1.357 8.618-.67 9.124-3.763 27-3.763 27l1.393 22.866c-4.662 5.001-28.322 7.005-40.209-.337 0 0 .159-36.743.476-42.506.564-10.126 3.181-17.397 9.217-18.922 6.036-1.525 11.174-2.669 18.708-.949z" opacity=".791" transform="translate(28.536 100.731)"/>
            <path fill="#263238" d="M42.57 50.664c.01.684.564 1.232 1.243 1.232.68 0 1.232-.55 1.242-1.232.01-.684-.528-1.248-1.207-1.268-.337-.005-.662.127-.903.365-.24.239-.375.564-.375.903zM43.927 46.47l2.53 1.499c.399-.728.158-1.642-.547-2.075-.338-.195-.74-.243-1.113-.135-.373.109-.687.366-.87.711z" transform="translate(28.536 100.731)"/>
            <path fill="#F28F8F" d="M42.667 58.307l-2.89 1.002c.12.39.393.714.754.9.362.184.782.215 1.167.084.797-.296 1.224-1.17.97-1.986z" transform="translate(28.536 100.731)"/>
            <path fill="#263238" d="M32.736 47.206l2.397-1.773c-.214-.327-.552-.55-.934-.621-.383-.07-.778.02-1.093.248-.672.502-.835 1.446-.37 2.146zM33.177 50.407c-.049.455.16.899.542 1.148.381.25.87.262 1.263.033.394-.23.626-.662.6-1.119.017-.326-.096-.645-.315-.887-.218-.241-.524-.385-.848-.399-.678-.005-1.233.542-1.242 1.224z" transform="translate(28.536 100.731)"/>
            <path fill="#F28F8F" d="M39.75 48.501L39.134 56.091 35.221 54.628z" transform="translate(28.536 100.731)"/>
            <path fill="#407BFF" d="M42.632 48.917l17.712-.824c3.34 2.66 9.543 8.352 9.499 9.877v1.047c.01.043.01.089 0 .133-.66 1.179-2.934 1.853-6.442 1.773-4.168 0-10.618-.603-12.283-2.12-2.494-2.287-8.442-8.928-8.442-8.928l.881-.044c-.6-.541-.925-.914-.925-.914z" transform="translate(28.536 100.731)"/>
            <path fill="#000" d="M42.632 48.917l17.712-.824c3.34 2.66 9.543 8.352 9.499 9.877v1.047c.01.043.01.089 0 .133-.66 1.179-2.934 1.853-6.442 1.773-4.168 0-10.618-.603-12.283-2.12-2.494-2.287-8.442-8.928-8.442-8.928l.881-.044c-.6-.541-.925-.914-.925-.914z" opacity=".4" transform="translate(28.536 100.731)"/>
            <path fill="#407BFF" d="M60.309 49.095c3.524 2.82 10.124 8.866 9.463 10.055-.66 1.188-2.934 1.853-6.441 1.773-4.168 0-10.618-.603-12.284-2.12-2.494-2.287-8.442-8.928-8.442-8.928l17.704-.78z" transform="translate(28.536 100.731)"/>
            <path fill="#000" d="M60.326 49.095c3.525 2.82 10.116 8.866 9.455 10.055-.66 1.188-2.925 1.853-6.441 1.773-4.168 0-10.574-.603-12.275-2.12-2.503-2.287-8.45-8.928-8.45-8.928l17.711-.78z" opacity=".6" transform="translate(28.536 100.731)"/>
            <path fill="#407BFF" d="M60.309 49.095c0 .514-1.763 1.543-1.763 1.543l.59-3.113 1.173 1.57z" transform="translate(28.536 100.731)"/>
            <path fill="#000" d="M60.309 49.095c0 .514-1.763 1.543-1.763 1.543l.59-3.113 1.173 1.57z" opacity=".3" transform="translate(28.536 100.731)"/>
            <path fill="#263238" d="M55.955 38.579s2.75.46 3.701 2.589c.829 1.844.388 6.207-.88 10.986-.768 3.082-1.86 6.072-3.261 8.92-.486.803-1.258 1.39-2.16 1.64l.292-5.684.317-3.954s-2.432-3.547-2.644-6.393c-.255-3.67.556-5.152.556-5.152l4.08-2.952z" transform="translate(28.536 100.731)"/>
            <path fill="#263238" d="M51.347 43.952c-.187 5.86-5.05 10.463-10.874 10.294-5.825-.186-9.887-5.018-9.693-10.88.194-5.86 4.512-10.56 10.336-10.347 5.82.189 10.394 5.076 10.23 10.933z" transform="translate(28.536 100.731)"/>
            <path fill="#FFBDA7" d="M53.85 52.446c.88.887 1.762-1.268 2.581-2.083.82-.816 3.455-1.88 4.67.886 1.217 2.767-1.321 6.721-3.348 7.44-1.25.456-2.648-.014-3.375-1.135l-.344 12.59c-3.145 5.365-8.441 5.045-11.261 4.664-2.82-.381-3.366-3.36-1.225-5.692l.123-3.902c-1.578.205-3.173.238-4.758.098-2.582-.479-3.886-2.483-4.582-5.32-1.128-4.575-1.419-12.218.555-20.988 2.97-2.18 13.024-1.525 19.016 2.527-.66 7.812 1.022 10.055 1.947 10.915z" transform="translate(28.536 100.731)"/>
            <path fill="#263238" d="M34.084 35.183c1.238-1.25 2.725-2.223 4.362-2.855 1.318-.526 2.725-.785 4.142-.763 1.842.054 3.683-.177 5.516-.062 3.19.186 7.05 1.605 8.371 4.77.617 1.446.688 2.953-.643 3.91-1.188.752-2.534 1.213-3.93 1.348-2.38.355-4.74.807-7.129 1.064-2.56.362-5.164.251-7.684-.328-1.176-.296-2.291-.797-3.295-1.48-.512-.367-.985-.786-1.41-1.25-.159-.178-.6-.55-.644-.79-.044-.24.274-.7.397-.93.525-.965 1.18-1.85 1.947-2.634z" transform="translate(28.536 100.731)"/>
            <path fill="#F0997A" d="M41.671 65.232s5.825-.993 7.887-2.013c1.203-.576 2.207-1.503 2.882-2.66-.344 1.182-.92 2.282-1.692 3.237-1.542 1.853-9.12 3.023-9.12 3.023l.043-1.587z" transform="translate(28.536 100.731)"/>
            <path fill="#263238" d="M44.121 50.008c-.013.453.216.878.6 1.116.383.237.864.25 1.26.035s.648-.627.66-1.08c.02-.699-.522-1.284-1.216-1.312-.697-.01-1.275.54-1.304 1.241zM45.055 45.965l2.556 1.241c.326-.733.024-1.595-.688-1.96-.341-.16-.733-.174-1.085-.038-.352.135-.634.408-.783.757z" transform="translate(28.536 100.731)"/>
            <path fill="#B16668" d="M44.553 56.942l-4.16 1.418c.162.576.552 1.06 1.08 1.336.526.277 1.143.323 1.705.127 1.147-.44 1.75-1.706 1.375-2.881z" transform="translate(28.536 100.731)"/>
            <path fill="#F28F8F" d="M43.178 59.823c-.37.12-.765.138-1.145.054.074-1.067.964-1.888 2.026-1.871.19.008.377.044.556.106-.148.784-.693 1.433-1.437 1.711z" transform="translate(28.536 100.731)"/>
            <path fill="#263238" d="M33.274 46.674l2.555-1.277c-.149-.347-.434-.617-.788-.747-.353-.129-.744-.106-1.08.065-.708.367-1.009 1.226-.687 1.96zM34.058 49.981c-.03.658.474 1.217 1.128 1.25.652 0 1.184-.523 1.198-1.179.013-.418-.197-.811-.55-1.031-.354-.22-.798-.234-1.164-.035-.366.198-.6.577-.612.995z" transform="translate(28.536 100.731)"/>
            <path fill="#F0997A" d="M40.288 48.217L40.068 55.771 36.182 54.982z" transform="translate(28.536 100.731)"/>
            <path fill="#E02020" d="M46.113 30.147c-7.305-.967-11.985 2.021-14.417 7.918-.477 1.216-.743 2.505-.784 3.812 4.406-3.183 14.1-2.278 20.267.452 3.015 1.33 5.758 3.213 8.09 5.551.407.37.76.798 1.048 1.268.498-1.414.794-2.892.882-4.39.484-8.52-6.512-13.52-15.086-14.611z" transform="translate(28.536 100.731)"/>
            <path fill="red" d="M46.113 30.147c-7.305-.967-11.985 2.021-14.417 7.918-.477 1.216-.743 2.505-.784 3.812 4.406-3.183 14.1-2.278 20.267.452 3.015 1.33 5.758 3.213 8.09 5.551.407.37.76.798 1.048 1.268.498-1.414.794-2.892.882-4.39.484-8.52-6.512-13.52-15.086-14.611z" opacity=".3" transform="translate(28.536 100.731)"/>
            <path fill="#263238" d="M45.593 39.084c-1.983-.727-7.05-1.268-8.557-.833-.683-.59-1.277-1.277-1.762-2.04-.67-1.126-.397-2.527.273-2.793s.679.603 3.172 1.933c-.31-.825-.356-1.727-.132-2.58.44-1.02 1.26.887 3.11 2.102 1.851 1.214 3.72 1.915 3.896 4.211z" transform="translate(28.536 100.731)"/>
            <path fill="#FFBDA7" d="M88.119 103.11c-3.031-5.692-9.253-14.426-12.84-20.845-3.727-6.677-4.308-7.625-12.283-9.656-1.903 2.394-1.762 13.22.529 21.227 2.405 3.343 11.323 13.779 11.323 13.779-.203 1.4-4.538 15.96-6.785 20.65-.405.834-2.644 1.56-3.445 1.924-2.283.958-4.97 3.423-6.794 4.806-1.428 1.09-2.52 1.232-2.433 1.667.333 1.018 1.39 1.606 2.424 1.348 1.548-.478 3.06-1.07 4.52-1.774-1.384 2.142-2.912 4.186-4.573 6.118-3.102 3.503-4.406 6.429 1.542 6.597 4.485.133 7.834-1.321 13.288-8.867 1.749-2.648 3.324-5.408 4.715-8.263 4.088-7.714 5.965-13.096 8.265-17.539 3.005-5.825 3.992-8.44 2.547-11.172z" transform="translate(28.536 100.731)"/>
            <path fill="#455A64" d="M62.987 72.61c3.754.797 6.001 1.569 7.253 2.402 1.25.833 2.581 2.474 5.287 6.907 2.705 4.433 9.746 15.561 9.746 15.561s-.635 6.136-12.205 8.867l-10.24-12.59s-5.33-11.847.16-21.148z" transform="translate(28.536 100.731)"/>
        </g>
        <g>
            <path fill="#FF4040" d="M.382 6.226C.33 5.51.49 5.062.81 4.876c.338-.167 2.56-1.578 2.871-1.763h.044c.338-.168.89 0 1.476.397 6.222 4.409 14.569 5.229 20.809 2.248.86-.672 1.641-1.438 2.329-2.284l.106-.132c.172-.205.376-.38.605-.52 0 0 2.667-1.684 2.907-1.764l.097-.062c.676-.343 1.307 0 1.778.953 6.222 13.959 18.96 27.892 27.245 31.207.63.252 1.194.64 1.653 1.138.607.61.96 1.426.987 2.284.622 18.21-8.427 47.618-27.138 58.006-1.1.765-2.246 1.463-3.431 2.09C6.017 70.642 1.129 27.804.382 6.226z" transform="translate(135.536 265.731)"/>
            <path fill="#FFF" d="M.889 4.841c.338-.167.889-.044 1.467.397 7.235 5.115 17.386 5.414 23.706.459C19.84 8.668 11.467 7.83 5.272 3.439c-.623-.432-1.139-.564-1.476-.397H3.75c-.347.22-2.569 1.632-2.862 1.8z" opacity=".4" transform="translate(135.536 265.731)"/>
            <path fill="#FF4040" d="M29.173 2.69c.667-.344 1.298 0 1.778.943 6.222 13.977 18.969 27.9 27.253 31.216.627.255 1.19.64 1.654 1.13.246.266.458.562.63.881l2.899-1.764c-.165-.321-.374-.618-.623-.881-.458-.497-1.023-.886-1.653-1.138-8.284-3.316-21.013-17.248-27.244-31.208-.445-.987-1.085-1.296-1.778-.952L31.99.98l-1.289.793-1.529.918z" transform="translate(135.536 265.731)"/>
            <path fill="#000" d="M36.613 94.452c18.667-10.37 27.725-39.788 27.103-57.98-.009-.487-.133-.964-.365-1.393l-2.898 1.763c.225.432.347.908.356 1.394.587 17.266-7.476 44.55-24.196 56.216z" opacity=".3" transform="translate(135.536 265.731)"/>
            <path fill="#FF4040" d="M.382 6.226c.747 21.578 5.636 64.416 32.765 90.342C52.213 86.47 61.44 56.648 60.8 38.27c-.02-.857-.37-1.675-.978-2.284-.462-.493-1.026-.881-1.653-1.138-8.285-3.306-21.022-17.24-27.253-31.207-.445-.988-1.076-1.296-1.778-.952l-.098.061c-.229.14-.433.315-.604.52l-.107.133c-5.858 7.24-17.84 7.645-26.053 1.834-.623-.432-1.13-.564-1.467-.397-.32.22-.48.67-.427 1.385z" transform="translate(135.536 265.731)"/>
            <path fill="#000" d="M29.173 2.69c.667-.344 1.298 0 1.778.952 6.222 13.968 18.969 27.9 27.253 31.207.628.257 1.192.645 1.654 1.138.608.61.958 1.427.978 2.284.64 18.377-8.587 48.2-27.654 58.297C18.4 47.028 29.173 2.69 29.173 2.69z" opacity=".1" transform="translate(135.536 265.731)"/>
            <path fill="#FAFAFA" d="M40.542 64.558c-.296-3.643-.397-7.299-.302-10.952l-10.213-5.617c-.208-3.764-.181-7.536.08-11.297-3.867-2.054-5.538-2.927-9.53-4.964-.395 3.637-.59 7.293-.586 10.952-3.964-2.063-5.235-2.707-9.315-4.762.252 3.853.777 7.684 1.573 11.464 4.16 2.08 4.444 2.204 8.435 4.259.64 4.365 1.174 7.055 2.054 11.137 3.653 1.887 5.395 2.831 9.013 4.877-.794-3.603-1.361-7.253-1.698-10.926 3.725 2.116 6.783 3.827 10.49 5.829z" transform="translate(135.536 265.731)"/>
            <path fill="#EBEBEB" d="M30.027 47.989l10.213 5.617c-.095 3.653.006 7.31.302 10.952-3.706-2.002-6.8-3.677-10.489-5.794.338 3.665.905 7.305 1.698 10.9-1.929-1.094-3.333-1.87-4.773-2.646-1.364-10.873-1.857-21.836-1.476-32.786l4.605 2.434c-.262 3.769-.289 7.55-.08 11.323z" transform="translate(135.536 265.731)"/>
            <path fill="#FFF" d="M19.618 12.733c-6.49 1.879-12.374-.776-15.751-2.354 0 0 .542 38.103 14.604 62.283-5.875-19.056-5.467-23.016-6.329-37.266-.853-13.994 2.64-18.994 7.476-22.663z" opacity=".4" transform="translate(135.536 265.731)"/>
        </g>
        <g>
            <path fill="#263238" d="M20.551 197.774c-.195.169-.611.79-1.374 1.696-.788.873-1.626 1.7-2.509 2.476-1.778 1.679-3.674 3.227-5.674 4.633-2.376 1.713-4.566 2.85-7.439 4.598-.304.165-.57.391-.78.666-.158.242-.252.52-.275.807-.036 1.196.601 2.311 1.65 2.885 1.035.548 2.173.874 3.342.959 2.68.416 5.42.163 7.98-.737 2.186-.922 4.215-2.183 6.01-3.737 1.49-1.354 3.248-2.38 5.16-3.009 1.667-.461 3.786-.63 5.143-1.837 1.046-2.175.638-3.266.354-5.397-.24-1.775.053-4.367-.966-4.162l-1.889-.702c0 .994-2.287 1.776-4.122 1.97-1.525.187-4.433.143-4.53-.576l-.08-.533zM56.166 195.493c1.56 0 1.01 5.947 1.41 9.835.434 4.171 1.32 7.35 1.71 10.766.534 2.98.08 6.054-1.294 8.752-1.09 2.503-6.56 5.92-8.635 2.352s-2.527-7.65-2.288-11.539c.189-3.267.153-6.544-.106-9.808-.186-3.044-1.33-9.24.7-9.63l.098 1.047c.727 1.456 7.651 2.46 8.467-.328l-.062-1.447z" transform="translate(240.536 146.731)"/>
            <path fill="#C53F3F" d="M55.918 96.562c.15 7.57 1.773 57.693 1.773 57.693.554 4.098.886 8.222.993 12.356.204 10.012-.39 35.947-.39 35.947-.647 4.234-11.686 3.489-12.758 1.536 0 0-2.74-37.093-3.99-47.043l-4.265-33.853-2.66 25.98c.255 3.472.255 6.958 0 10.43-.327 4.589-2.544 38.406-2.544 38.406-.044 1.686-10.994 3.55-12.519-.328 0 0-.798-47.318-.886-51.525-.098-4.793.576-50.176.576-50.176l36.67.577z" transform="translate(240.536 146.731)"/>
            <path fill="#000" d="M55.918 96.562c.15 7.57 1.773 57.693 1.773 57.693.554 4.098.886 8.222.993 12.356.204 10.012-.39 35.947-.39 35.947-.647 4.234-11.686 3.489-12.758 1.536 0 0-2.74-37.093-3.99-47.043l-4.265-33.853-2.66 25.98c.255 3.472.255 6.958 0 10.43-.327 4.589-2.544 38.406-2.544 38.406-.044 1.686-10.994 3.55-12.519-.328 0 0-.798-47.318-.886-51.525-.098-4.793.576-50.176.576-50.176l36.67.577z" opacity=".3" transform="translate(240.536 146.731)"/>
            <path fill="#000" d="M35.987 109.547c-3.176-1.23-6.071-3.09-8.511-5.467 0 0 1.356 3.967 6.924 7.234l.408 36.01 2.43-24.09-1.251-13.687z" opacity=".1" transform="translate(240.536 146.731)"/>
            <path fill="#FFA8A7" d="M12.466 90.056l5.869 7.287s4.087-6.781 3.919-6.781c-.169 0-5.17-8.22-5.17-8.22l-4.618 7.714z" transform="translate(240.536 146.731)"/>
            <path fill="#E6E6E6" d="M24.036 40.519c-4.61-.071-7.093 2.982-10.471 8.29-2.881 4.536-9.558 15.382-11.437 18.64-2.12 3.692-2.412 5.192-.754 7.988C2.952 78.1 12.333 90.659 12.333 90.659c2.801-.79 7.092-4.571 8.28-7.678l-6.693-10.73 9.752-13.82.364-17.912z" transform="translate(240.536 146.731)"/>
            <path fill="#C53F3F" d="M43.355 39.356c1.41.346 5.896 1.553 9.54 2.84 1.847.708 3.447 1.942 4.6 3.55 2.66 3.862.258 12.427-1.684 28.635.142 10.447.444 23.441.444 23.441-4.797 3.497-27.183 5.876-37.237-1.509 0 0-.337-39.214.328-44.309 1.276-9.763 5.098-12.373 12.98-12.834l11.029.186z" transform="translate(240.536 146.731)"/>
            <path fill="#000" d="M43.355 39.356c1.41.346 5.896 1.553 9.54 2.84 1.847.708 3.447 1.942 4.6 3.55 2.66 3.862.258 12.427-1.684 28.635.142 10.447.444 23.441.444 23.441-4.797 3.497-27.183 5.876-37.237-1.509 0 0-.337-39.214.328-44.309 1.276-9.763 5.098-12.373 12.98-12.834l11.029.186z" opacity=".2" transform="translate(240.536 146.731)"/>
            <path fill="#000" d="M40.934 15.56c-.138 5.82-4.964 10.428-10.779 10.29-5.814-.138-10.417-4.968-10.28-10.79.136-5.82 4.96-10.43 10.775-10.294 5.815.14 10.418 4.971 10.284 10.794zM48.426 23.237s-1.897 7.989-2.615 9.285c-.476.803-1.24 1.393-2.137 1.65l.248-5.645 4.504-5.29zM46.555 11.69c1.213-.115 2.41.337 3.245 1.225 1.374 1.473.479 5.955-1.374 10.322l-3.227.293 1.356-11.84z" transform="translate(240.536 146.731)"/>
            <path fill="#FFA8A7" d="M44.241 23.512c.63.4 1.578-.816 2.394-1.633.816-.816 3.44-1.89 4.672.888 1.233 2.778-1.303 6.435-3.36 7.03-3.546 1.02-4.025-1.252-4.025-1.252l-.603 14.388c-2.943 3.367-6.93 5.645-11.322 6.47-1.463-2.165-1.596-5.325-.097-8.511l.106-4.119c-1.575.214-3.168.255-4.752.124-2.58-.461-4.167-2.538-4.876-5.37-1.082-4.313-1.348-9.133-.266-17.024 1.339-9.692 12.696-9.515 18.698-5.53 6.002 3.986 3.431 14.54 3.431 14.54z" transform="translate(240.536 146.731)"/>
            <path fill="#000" d="M44.215 24.595c.319 0 1.604-2.006 2.42-2.716 1.135-.985-.08-10.19-.08-10.19.83-1.631.572-3.605-.647-4.97-2.243-2.6-5.204-3.355-8.582-3.275-1.241 0-2.456.133-3.688.15-1.47-.01-2.93-.263-4.318-.745-1.898-.603-3.724-1.429-5.657-1.89-.607-.243-1.297-.148-1.817.248-.297.396-.404.903-.293 1.385.138 1.126.607 2.186 1.348 3.044-.662-.112-1.334-.145-2.004-.097-.674.054-1.305.354-1.773.843-.595.758-.715 1.787-.31 2.663.418.86 1.098 1.565 1.941 2.014 1.608.932 3.505 1.23 5.32.835.422.973 1.238 1.722 2.243 2.059 3.056 1.323 6.529 1.287 9.557-.098.33.5.694.974 1.091 1.42.447.438.947.817 1.49 1.128.256.15.523.284.797.4.306.072.603.176.887.31.346.257.31.94.364 1.349.177 1.163.319 2.326.55 3.48.061.842.323 1.657.762 2.378.09.142.234.241.399.275z" transform="translate(240.536 146.731)"/>
            <path fill="#000" d="M46.538 12.426l3.945-1.997c-.236-.539-.684-.957-1.237-1.155-.554-.198-1.165-.159-1.689.108-1.101.576-1.551 1.92-1.02 3.044z" transform="translate(240.536 146.731)"/>
            <path fill="#F28F8F" d="M32.006 36.755s5.807-1.03 7.855-2.059c1.2-.58 2.198-1.507 2.864-2.663-.337 1.174-.903 2.27-1.667 3.222-1.525 1.864-9.087 3.187-9.087 3.187l.035-1.687z" transform="translate(240.536 146.731)"/>
            <path fill="#000" d="M33.957 22.092c.054.635.608 1.108 1.242 1.06.635-.046 1.113-.595 1.074-1.23-.039-.636-.582-1.122-1.217-1.09-.313.02-.605.165-.811.401-.207.237-.31.546-.288.86zM34.701 17.752l2.554 1.243c.328-.727.027-1.583-.683-1.944-.34-.161-.73-.178-1.083-.046s-.637.402-.788.747zM22.715 18.808l2.66-.932c-.112-.357-.364-.654-.698-.822-.335-.167-.723-.191-1.076-.065-.721.285-1.106 1.074-.886 1.82zM24.036 21.764c-.036.635.445 1.182 1.08 1.226.634.044 1.185-.431 1.237-1.066.051-.634-.416-1.193-1.05-1.252-.312-.024-.622.077-.86.282-.238.205-.385.496-.407.81z" transform="translate(240.536 146.731)"/>
            <path fill="#F28F8F" d="M30.304 21.107L29.887 28.084 26.252 26.823z" transform="translate(240.536 146.731)"/>
            <path fill="#B16668" d="M34.24 29.29l-4.566 1.252c.133.623.513 1.165 1.054 1.5.54.335 1.194.435 1.81.275 1.295-.378 2.05-1.722 1.702-3.026z" transform="translate(240.536 146.731)"/>
            <path fill="#F28F8F" d="M34.24 30.418c-.2-.064-.41-.097-.62-.098-1.111 0-2.04.846-2.146 1.953h.08c.324.07.66.07.984 0 .87-.251 1.526-.967 1.702-1.855z" transform="translate(240.536 146.731)"/>
            <path fill="#FAFAFA" d="M43.488 38.806s-2.376 11.92-3.396 19.988c-1.02 8.069-.833 30.836-.284 45.268.4 10.518 1.968 29.974 1.968 29.974s2.59.524 8.866-.506c3.238-.428 6.358-1.5 9.177-3.15 0 0-.984-29.584-1.773-39.943-.692-9.533-.665-14.77-.665-14.77l2.243-21.737s-.169-13.66-4.433-14.201c-4.345-.586-11.703-.923-11.703-.923z" transform="translate(240.536 146.731)"/>
            <path fill="#C53F3F" d="M47.54 58.36c0-.498.044-1.572.132-2.938.426-6.666-.186-16.297-2.429-16.785l-.204.888c1.65.346 1.906 12.568 1.694 15.799-.09 1.393-.151 2.494-.133 3.044l.94-.009z" transform="translate(240.536 146.731)"/>
            <path fill="#EBEBEB" d="M43.656 34.918c.656-.133 1.268.213 1.773 1.127.506.915 1.773 2.85 1.773 2.85s.612 6.408 0 7.988c-.531 1.385-4.051 7.9-4.051 7.9s.23 6.328.283 8.219c.054 1.89-3.6 9.763-4.007 13.438 0 0-.186-14.894.364-19.03.94-7.199 2.136-16.208 3.732-19.155l.133-3.337z" transform="translate(240.536 146.731)"/>
            <path fill="#455A64" d="M46.174 79.378c-.852.561-1.853.852-2.873.834l.08-.648c.783.006 1.55-.21 2.217-.621-.634-.507-1.19-1.105-1.65-1.775-.93-1.456-2.41-11.397-1.507-13.607.754-1.838 2.944-5.823 4.61-5.823h.045c1.667.071 3.546 4.287 4.14 6.213.719 2.281-1.604 12.063-2.66 13.43-.506.627-1.103 1.175-1.772 1.624.63.461 1.376.738 2.154.799v.657h-.08c-.985-.098-1.923-.474-2.704-1.083zm-3.12-15.56c-.834 2.033.584 11.654 1.453 12.995.47.678 1.044 1.278 1.702 1.775.697-.44 1.322-.985 1.853-1.616.976-1.278 3.201-10.74 2.545-12.834-.798-2.565-2.562-5.69-3.546-5.734-.958 0-2.997 2.947-4.008 5.414z" transform="translate(240.536 146.731)"/>
            <path fill="#263238" d="M42.38 79.884c-.033.393.177.766.528.943.352.177.776.123 1.072-.137.296-.26.405-.674.275-1.046s-.472-.628-.865-.648c-.52-.026-.968.367-1.01.888zM47.992 80.088c-.033.394.177.767.53.944.353.177.778.121 1.073-.14.296-.262.402-.678.27-1.05s-.477-.626-.872-.642c-.519-.025-.964.369-1.001.888z" transform="translate(240.536 146.731)"/>
            <path fill="#C53F3F" d="M42.282 67.875h.55c.116-.014.204-.114.203-.231-.155-1.243-.098-2.504.169-3.728.966-2.37 2.979-5.326 3.857-5.326.877 0 2.66 3.169 3.395 5.619.155 1.242.104 2.502-.15 3.728-.017.117.061.226.177.248l.55.08c.057.01.117-.004.164-.04.047-.035.077-.088.084-.146.304-1.37.353-2.785.142-4.172-.417-1.305-2.35-6.213-4.291-6.302-1.942-.089-4.292 4.642-4.815 5.92-.345 1.36-.426 2.773-.24 4.163.014.104.1.183.205.187z" transform="translate(240.536 146.731)"/>
            <path fill="#FAFAFA" d="M31.97 38.078c-.886.07-1.232.48-3.226 1.065-3.724 1.11-6.641 1.544-8.148 3.55-2.5 3.329-2.013 6.063-2.66 22.954-.647 16.89-.825 64.998-.825 64.998 1.785.814 3.732 1.209 5.692 1.154 0 0-.15-53.087.204-65.034.355-11.947 2.164-17.752 4.744-21.693.727-3.302 2.136-5.21 4.167-5.911l.053-1.083z" transform="translate(240.536 146.731)"/>
            <path fill="#EBEBEB" d="M27.777 45.09c-2.58 3.932-4.433 9.763-4.743 21.693 0 1.42-.08 3.417-.115 5.814 0 0-2.12-10.82-1.774-13.12.346-2.298 2.864-7.056 2.864-7.056-.312-3.838.417-7.69 2.11-11.148.619-.917 1.445-1.674 2.412-2.21 1.008-.676 2.2-1.02 3.413-.985l-.062 2.53c-.94.719-1.826 1.42-4.105 4.482z" transform="translate(240.536 146.731)"/>
            <path fill="#FFA8A7" d="M66.601 82.955c-.72 1.188-1.51 2.333-2.367 3.426-.682.974-1.698 1.663-2.855 1.935-2.377.319-4.717.872-6.986 1.65-1.995.622-3.254.462-3.316.977-.089.657.266 1.42 2.075 1.775 1.322.153 2.658.153 3.98 0-1.579 1.877-3.418 3.518-5.461 4.873-4.034 2.663-5.4 4.678-1.206 7.225 3.068 1.873 8.414 1.376 15.8-5.53 3.542-3.467 6.756-7.255 9.601-11.316l-9.265-5.015z" transform="translate(240.536 146.731)"/>
            <path fill="#E6E6E6" d="M75.184 89.843c2.66-3.32 5.32-7.163 6.968-9.258 5.125-6.506 3.245-8.93.949-12.329C64.8 41.14 63.596 39.942 54.73 39.676c-3.99 6.852-.204 16.234 3.12 19.953l14.346 14.246c-2.137 3.461-6.614 10.331-6.614 10.331s4.778 4.554 9.602 5.637z" transform="translate(240.536 146.731)"/>
        </g>
    </g>
</svg>
